<svg width="64" height="64" viewBox="0 0 64 64" xmlns="http://www.w3.org/2000/svg"><g fill="#D9D9D9" fill-rule="evenodd"><path d="M14.2916991 46.2811175h1.5365546v7.4340936h2.0005269v-9.2188839h-3.5370815zm9.8368777 1.3405504c-.4087349 0-.7634524.0605615-1.0560555.1801317v-1.54687h3.4718614v-1.7586135h-5.2173865v5.5329497l.2286031.0913969.0252894-.0205199c.317338-.257331.5995148-.4441179.8386551-.5551473.3526101-.1657123.7515841-.2497886 1.1859411-.2497886 1.0978718 0 1.6315009.4374627 1.6315009 1.3373449 0 .9525685-.4716257 1.4156534-1.4418302 1.4156534-.4349116 0-.8042703-.1106967-1.0978717-.3289844-.235591-.1765823-.434468-.4379064-.5910849-.7765408l-.0242912-.0525753-1.7072582.8813587.0225164.0483605c.2780728.5956326.7096569 1.0786828 1.2828839 1.4358405.6162634.3830018 1.3278059.5772202 2.1151057.5772202 1.033539 0 1.8797366-.2862808 2.5147453-.8508562.6588561-.5837643.9929428-1.3830433.9929428-2.3756534 0-.8879029-.2896083-1.6141976-.8608388-2.1588076-.5789948-.5480485-1.3574212-.8258995-2.3134281-.8258995m15.2694461-3.1253185h-2.2721664l-2.4556257 3.14687c-.1491854.1932201-.298149.4243743-.442454.6868076-.0742045.1323258-.1489636.276409-.2235009.4304749.0175251-.1575043.0328319-.3011439.0459203-.4313622.0261768-.3093519.039487-.5660174.039487-.7631196v-3.0696707h-1.9874385v9.2188839h1.9874385v-2.6898857l.8216846-.9799653 2.4011646 3.669851h2.3963952l-3.468312-5.1660312 3.1574073-4.0528527zm6.025661 4.8110918l-4.4439515-4.8845199-.0165269-.0180797h-.2303778v9.3103917h1.9024749v-3.4685338c0-.2550018-.0110919-.6014004-.0328319-1.0296569l-.0215182-.3749047.2157366.3063571c.2571092.3487279.4781698.6272443.6570814.827896l1.8211716 2.0389046h.2261629l1.8211716-2.0390156c.1786898-.2004298.3997504-.4789462.657747-.8286724l.215071-.3054697-.0215182.3752375c-.02174.4251507-.0327209.7714384-.0327209 1.0293241v3.4685338h1.9154523v-9.3103917h-.243799l-4.3888249 4.9025996z"/><path d="M61.6707106 60.5628561c0 .6116049-.4975806 1.1091855-1.1091855 1.1091855H3.3275563c-.6116048 0-1.1091854-.4975806-1.1091854-1.1091855V35.4384748c0-.6116048.4975806-1.1091854 1.1091854-1.1091854h57.2339688c.6116049 0 1.1091855.4975806 1.1091855 1.1091854v25.1243813zm-1.1091855-28.4519376H41.2062392V18.6897747c0-.6126031-.4965824-1.1091855-1.1091855-1.1091855s-1.1091854.4965824-1.1091854 1.1091855v13.4211438H24.9566724V18.6897747c0-.6126031-.4965823-1.1091855-1.1091854-1.1091855-.6126031 0-1.1091854.4965824-1.1091854 1.1091855v13.4211438H3.3275563C1.4927418 32.1109185 0 33.6036603 0 35.4384748v25.1243813c0 1.8348146 1.4927418 3.3275564 3.3275563 3.3275564h57.2339688c1.8348146 0 3.3275564-1.4927418 3.3275564-3.3275564V35.4384748c0-1.8348145-1.4927418-3.3275563-3.3275564-3.3275563zM23.847487 8.928976c-8.2566655 0-14.9740035 6.717338-14.9740035 14.9740035 0 .6126031.4965824 1.1091855 1.1091855 1.1091855s1.1091854-.4965824 1.1091854-1.1091855c0-7.0334558 5.7221768-12.7556326 12.7556326-12.7556326.6126031 0 1.1091854-.4965823 1.1091854-1.1091854 0-.6126031-.4965823-1.1091854-1.1091854-1.1091854"/><path d="M1.1646447 25.012165c.6126031 0 1.1091855-.4965824 1.1091855-1.1091855 0-11.895792 9.6778648-21.5736568 21.5736568-21.5736568.6126031 0 1.1091854-.4965823 1.1091854-1.1091855 0-.612603-.4965823-1.1091854-1.1091854-1.1091854-6.355078 0-12.3298163 2.4748146-16.8234593 6.9685685C2.5302738 11.5731632.0554593 17.5479015.0554593 23.9029795c0 .6126031.4965823 1.1091855 1.1091854 1.1091855m38.932409-22.6828423c11.8957921 0 21.5736569 9.6778648 21.5736569 21.5736568 0 .6126031.4965823 1.1091855 1.1091854 1.1091855.6126031 0 1.1091855-.4965824 1.1091855-1.1091855 0-6.355078-2.4748146-12.3298163-6.9685685-16.8234592C52.42687 2.5857663 46.4521317.1109518 40.0970537.1109518c-.6126031 0-1.1091854.4965823-1.1091854 1.1091854 0 .6126032.4965823 1.1091855 1.1091854 1.1091855"/><path d="M40.0970537 11.1473469c7.0334558 0 12.7556326 5.7221768 12.7556326 12.7556326 0 .6126031.4965823 1.1091855 1.1091855 1.1091855.6126031 0 1.1091854-.4965824 1.1091854-1.1091855 0-8.2566655-6.717338-14.9740034-14.9740035-14.9740034-.6126031 0-1.1091854.4965823-1.1091854 1.1091854 0 .6126031.4965823 1.1091854 1.1091854 1.1091854"/></g></svg>