<svg width="64" height="64" viewBox="0 0 64 64" xmlns="http://www.w3.org/2000/svg"><path d="M32 .0554593C49.6731111.0554593 64 14.3575182 64 32S49.6731111 63.9445407 32 63.9445407 0 49.6424818 0 32 14.3268889.0554593 32 .0554593zm0 2.2183709c-4.0208889 0-7.9204444.785636-11.5902222 2.335168-3.5456667 1.4970677-6.7304445 3.6406794-9.4657778 6.371494-2.7355556 2.7305927-4.8828889 5.909851-6.3825556 9.4493726C3.0092222 24.0932825 2.2222222 27.9860797 2.2222222 32s.787 7.9067175 2.3392222 11.5701352c1.4996667 3.5395216 3.647 6.7187799 6.3825556 9.4493726 2.7353333 2.7308146 5.9201111 4.8744263 9.4657778 6.3714939C24.0795556 60.9405338 27.9791111 61.7261698 32 61.7261698c4.0208889 0 7.9204444-.785636 11.5901111-2.3351681 3.5457778-1.4970676 6.7305556-3.6406793 9.466-6.3714939 2.7354445-2.7305927 4.8827778-5.909851 6.3824445-9.4493726C60.9907778 39.9067175 61.7777778 36.0139203 61.7777778 32s-.787-7.9067175-2.3392222-11.5701352c-1.4996667-3.5395216-3.647-6.7187799-6.3824445-9.4493726-2.7354444-2.7308146-5.9202222-4.8744263-9.466-6.371494C39.9204444 3.0594663 36.0208889 2.2738303 32 2.2738303zM30.467517 23v3.5799273h-7.0148807v3.1457766c.5911683-.2429609 1.3074693-.3660309 2.1331208-.3660309 1.9317808 0 3.504622.5656222 4.6747834 1.6807448C31.4149193 32.1489555 32 33.6269301 32 35.4336966c0 2.0202089-.6750411 3.6469119-2.0064096 4.8346958C28.7102458 41.4173479 27.0005476 42 24.9120688 42c-1.5906529 0-3.0284408-.3950954-4.2739073-1.174614l-.2622377-.1722704c-1.0285312-.7071856-1.8114991-1.6310203-2.329929-2.7500729L18 37.8042688l3.4509614-1.7940508.0491513.1076294c.3163269.6889192.7181048 1.2204814 1.1940607 1.5799274.5931974.4439146 1.3394852.6691643 2.2178954.6691643 1.9597385 0 2.9125519-.942098 2.9125519-2.8801089 0-1.8303815-1.0781718-2.7202544-3.2956163-2.7202544-.8777337 0-1.6837698.170981-2.3960125.5081744-.4833961.225931-1.0533707.60604-1.6945921 1.1294278l-.0514059.0420073-.4624279-.1861944V23h10.542951zm15 0v3.5799273h-7.0148807v3.1457766c.5911683-.2429609 1.3074693-.3660309 2.1331208-.3660309 1.9317808 0 3.504622.5656222 4.6747834 1.6807448C46.4149193 32.1489555 47 33.6269301 47 35.4336966c0 2.0202089-.6750411 3.6469119-2.0064096 4.8346958C43.7102458 41.4173479 42.0005476 42 39.9120688 42c-1.5906529 0-3.0284408-.3950954-4.2739073-1.174614l-.2622377-.1722704c-1.0285312-.7071856-1.8114991-1.6310203-2.329929-2.7500729L33 37.8042688l3.4509614-1.7940508.0491513.1076294c.3163269.6889192.7181048 1.2204814 1.1940607 1.5799274.5931974.4439146 1.3394852.6691643 2.2178954.6691643 1.9597385 0 2.9125519-.942098 2.9125519-2.8801089 0-1.8303815-1.0781718-2.7202544-3.2956163-2.7202544-.8777337 0-1.6837698.170981-2.3960125.5081744-.4833961.225931-1.0533707.60604-1.6945921 1.1294278l-.0514059.0420073-.4624279-.1861944V23h10.542951zM53.4006.3625927c.413-.4529913 1.1157778-.4859341 1.5695556-.0736499l8.6666666 7.8752166c.4537778.4123952.4867778 1.113844.0737778 1.5668354-.2192222.2404714-.5202222.3625927-.822.3625927-.267 0-.5346667-.09539-.7476667-.2889428l-8.6666666-7.8752166C53.0204889 1.5170329 52.9874889.815584 53.4006.3625927zM9.0298222.2889428c.453889-.4122842 1.1565556-.3793414 1.5696667.07365.413.4529913.38 1.1544401-.0737778 1.5668353L1.8590444 9.8046447c-.213.1935529-.4806666.2889428-.7476666.2889428-.301889 0-.6026667-.1221213-.821889-.3625927-.413111-.4529913-.380111-1.1544402.0736668-1.5668353z" fill="#D9D9D9" fill-rule="evenodd"/></svg>