<svg width="64" height="64" viewBox="0 0 64 64" xmlns="http://www.w3.org/2000/svg" xmlns:xlink="http://www.w3.org/1999/xlink"><defs><path id="a" d="M.0036489.066202h46.4723775v11.4181186H.0036489z"/><path id="c" d="M0 .0670198h4.6155907V26.023593H0z"/></defs><g fill="none" fill-rule="evenodd"><path d="M44.8075019 18.9490955c-3.4617878-3.4301324-8.0499756-5.3192474-12.9195409-5.3192474-4.9134191 0-9.5311026 1.918439-13.0024626 5.4017561-.4341982.4357352-.4336417 1.1417421.0013357 1.5768083.2172661.2173101.5018713.3259095.7864765.3259095.2850504 0 .5703235-.1091568.7877009-.3272474 3.0507408-3.0612962 7.1088974-4.7472614 11.4269495-4.7472614 4.2795409 0 8.3118748 1.6602091 11.3541566 4.674676.4369808.4330592 1.1418713.4292683 1.5739547-.0085854.4323061-.4378536.4285218-1.1437491-.0085704-1.5768083M18.8868452 43.2798328c-.4349774.4350662-.4355339 1.1409616-.0013356 1.5768083 3.47136 3.4833171 8.0890434 5.4016446 13.0024626 5.4016446 4.8695652 0 9.457753-1.8890035 12.9195408-5.3192474.4370922-.4329477.4408766-1.1389547.0085705-1.5766968-.4324174-.4379652-1.1369739-.4416446-1.5740661-.0085854-3.0422817 3.0144669-7.0746157 4.6745645-11.3540452 4.6745645-4.3180522 0-8.3762087-1.6858537-11.4269496-4.7471499-.4343096-.4357352-1.1390887-.4365156-1.5741774-.0013379" fill="#D9D9D9"/><g transform="translate(8.681739 52.515679)"><mask id="b" fill="#fff"><use xlink:href="#a"/></mask><path d="M44.5758664.3927526C38.871296 6.1072613 31.2866838 9.2544111 23.2193447 9.2544111c-8.0464139 0-15.6170017-3.133101-21.31712-8.8220766C1.4669134-.0023972.762023-.0009477.3282699.4352335c-.4339756.4361811-.43264 1.1421881.002894 1.5768083 6.1201808 6.1083206 14.248626 9.4723345 22.8881808 9.4723345 8.6620383 0 16.8056209-3.3791777 22.9306991-9.5147038.4346435-.4355122.4346435-1.1415192 0-1.5769199-.4348661-.4354007-1.1394226-.4354007-1.5741774 0" fill="#D9D9D9" mask="url(#b)"/></g><path d="M10.3538087 11.1783024c.2851617 0 .5701009-.1090453.7874783-.3270244 5.5432904-5.559526 12.9158678-8.6212682 20.7598191-8.6212682 7.8371617 0 15.2053982 3.0572822 20.7472417 8.6087804.4347548.4354007 1.1394226.4352892 1.5741774-.0001115.4346435-.4354007.4346435-1.1414076 0-1.5768083C48.2600626 3.2892432 40.332967.0000446 31.9011061.0000446c-8.4389844 0-16.3709774 3.293993-22.3347757 9.275317-.4345321.4357353-.434087 1.1416307.0010018 1.5768084.217266.2174216.50176.3261324.7864765.3261324" fill="#D9D9D9"/><g transform="translate(0 18.954704)"><mask id="d" fill="#fff"><use xlink:href="#c"/></mask><path d="M3.935488.1552167C3.3692828-.084393 2.7162602.1809728 2.4769558.748276.8333245 4.644694-.0000112 8.7823944-.0000112 13.0466453c0 4.2631359.8330018 8.4000557 2.4757427 12.2955819.1795339.4255888.5919165.6813658 1.0258921.6813658.1443618 0 .2911722-.0283205.43264-.0881951.5662053-.2396097.8313322-.89377.5921392-1.4609617-1.5264278-3.6194564-2.300327-7.4643623-2.300327-11.4277909 0-3.964432.7743444-7.8101185 2.30144-11.4303554.2393044-.5671916-.0258226-1.221352-.5920278-1.4610732" fill="#D9D9D9" mask="url(#d)"/></g><path d="M61.4363047 19.6484683c-.239193-.5673031-.8926609-.832669-1.4585322-.5930592-.5660939.2397212-.8312208.8938815-.5919165 1.4610731 1.527207 3.62046 2.3015513 7.4663694 2.3015513 11.4308014 0 4.002899-.7888139 7.8828154-2.3446261 11.5323763-.2414191.5662997.0211478 1.2214634.5864626 1.4633032.1425809.0609895.290727.0898676.436647.0898676.4324174 0 .8436869-.2539931 1.0241113-.6774635 1.6744626-3.9278606 2.5234922-8.1025783 2.5234922-12.4080836 0-4.2642508-.833447-8.4021742-2.4771896-12.2988153M33.1439082 35.5401812c-.3979131-.1542021-.8160835-.2322509-1.2428244-.2322509-.4267408 0-.8449113.0780488-1.2428243.2322509l-2.0895165.8093658 3.3323408-7.4331428 3.3323409 7.4331428-2.0895165-.8093658zm-1.2428244-11.5680558c-.1271095 0-.2541078.0681255-.3152139.2043763l-6.8251826 15.2238607c-.13824.3082927.0999513.6275122.4018087.6275122.0528696 0 .1076313-.0098119.1626157-.031108l6.135986-2.3766969c.1414679-.0548572.290727-.0821742.4399861-.0821742.1492592 0 .2985183.027317.4399861.0821742l6.1359861 2.3766969c.0549843.0212961.1097461.031108.1626157.031108.3018573 0 .54016-.3192195.4018086-.6275122l-6.8251826-15.2238607c-.061106-.1362508-.1881043-.2043763-.3152139-.2043763z" fill="#D9D9D9"/></g></svg>