<svg width="64" height="64" viewBox="0 0 64 64" xmlns="http://www.w3.org/2000/svg" xmlns:xlink="http://www.w3.org/1999/xlink"><defs><path id="a" d="M.027648 0h26.9080042v46.08H.027648z"/></defs><g fill="none" fill-rule="evenodd"><path d="M38.28 36.3965217h7.1234783c.4629147 0 .8776347-.2866087 1.0411408-.7196939.1636174-.4330852.0420731-.9221565-.3051965-1.2283548l-1.8770365-1.6544278c-.4613565-.4064835-1.1645774-.3621843-1.5709496.0990609-.3202226.3634087-.3606261.8769669-.1377948 1.2773287H38.28c-.6146226 0-1.1130435.4983095-1.1130435 1.1130435 0 .6147339.4984209 1.1130434 1.1130435 1.1130434m8.2365217 3.7994519c0-.6146226-.4984208-1.1130435-1.1130434-1.1130435H38.28c-.4629148 0-.8776348.2866087-1.0411409.7196939-.1636174.4329739-.042073.9222678.3051966 1.2283548l1.8770365 1.6544278c.2115895.1865461.4740452.2780383.7354991.2780383.3085357 0 .615513-.1274435.8354504-.3769879.3202226-.3634087.3606261-.8770782.1377948-1.27744h4.2736418c.6146226 0 1.1130434-.4984208 1.1130434-1.1130434m-13.9130434 7.9621787c0 .6137322-.4993113 1.1130435-1.1130435 1.1130435H8.3391304c-.6137321 0-1.1130434-.4993113-1.1130434-1.1130435V9.3861733c0-.6137323.4993113-1.1130436 1.1130434-1.1130436h23.1513044c.6137322 0 1.1130435.4993113 1.1130435 1.1130435v38.7719791zm2.2260869 0V9.3861733c0-1.8411966-1.4979339-3.3391305-3.3391304-3.3391305H8.3391304C6.497934 6.0470428 5 7.5449767 5 9.3861732v38.7719791c0 1.8411966 1.497934 3.3391305 3.3391304 3.3391305h23.1513044c1.8411965 0 3.3391304-1.4979339 3.3391304-3.3391305z" fill="#D9D9D9"/><g transform="translate(32.603478 17.92)"><mask id="b" fill="#fff"><use xlink:href="#a"/></mask><path d="M23.5993489 0H10.2117732c-.6147339 0-1.1130435.4983096-1.1130435 1.1130435s.4983096 1.1130435 1.1130435 1.1130435h13.3875757c.6121739 0 1.1102608.4533426 1.1102608 1.0106434v39.6065392c0 .5573008-.4980869 1.0106434-1.1102608 1.0106434H3.3638845c-.6121739 0-1.1101495-.4533426-1.1101495-1.0106434v-1.8051339c0-.6146227-.498421-1.1130435-1.1130435-1.1130435-.614734 0-1.1130435.4984208-1.1130435 1.1130435v1.8051339C.027648 44.6280348 1.5242463 46.08 3.3638845 46.08H23.599349c1.8396382 0 3.3363478-1.4519652 3.3363478-3.2367304V3.2367304C26.9356967 1.4519652 25.4389871 0 23.5993489 0" fill="#D9D9D9" mask="url(#b)"/></g><path d="M15.9634783 2.226087h7.9026087c.6146226 0 1.1130434-.4983096 1.1130434-1.1130435C24.9791304.4983095 24.4807096 0 23.866087 0h-7.9026087c-.6146226 0-1.1130435.4983096-1.1130435 1.1130435s.4984209 1.1130435 1.1130435 1.1130435m7.2219603 25.6h-1.8683548c-.1098574 0-.1987895-.0890435-.1987895-.1987896v-7.616c0-.2046887-.2721392-.2758122-.3723131-.09728l-4.2752 7.6158887c-.0744626.1325635.0213705.2961809.1733009.2961809h1.8684661c.1098574 0 .1987895.0890434.1987895.1987895v7.616c0 .2046887.2720279.2757009.3722018.09728l4.2753113-7.6158887c.0744626-.1325635-.0214818-.2961808-.1734122-.2961808" fill="#D9D9D9"/></g></svg>