<svg width="64" height="64" viewBox="0 0 64 64" xmlns="http://www.w3.org/2000/svg" xmlns:xlink="http://www.w3.org/1999/xlink"><defs><path id="a" d="M.0000334.0559193h46.6937322v54.8171242H.0000334z"/><path id="c" d="M-.0000445.047193h44.4680208v52.5997635H-.0000445z"/></defs><g fill="none" fill-rule="evenodd"><path d="M46.4904348 24.718247h-5.6486957v-5.6486957c0-.4437704-.3631861-.8069565-.8069565-.8069565h-4.8417391c-.4437705 0-.8069565.3631861-.8069565.8069565v5.6486957h-5.6486957c-.4437704 0-.8069565.363186-.8069565.8069565v4.8417391c0 .4437704.3631861.8069565.8069565.8069565h5.6486957v5.6486957c0 .4437704.363186.8069565.8069565.8069565h4.8417391c.4437704 0 .8069565-.3631861.8069565-.8069565v-5.6486957h5.6486957c.4437704 0 .8069565-.3631861.8069565-.8069565v-4.8417391c0-.4437705-.3631861-.8069565-.8069565-.8069565" fill="#D9D9D9"/><g transform="translate(4 9.079763)"><mask id="b" fill="#fff"><use xlink:href="#a"/></mask><path d="M45.4155464 48.0400028c-.5521808.07936-.9478678.5778922-.9478678 1.1358609v2.7580104c0 .3937948-.3192209.7131269-.7130156.7131269H2.939136c-.3937948 0-.7130157-.3193321-.7130157-.7131269V2.9950219c0-.3937948.319221-.7130156.7130157-.7130156h2.7025809c.55808 0 1.0565008-.3957983 1.1359721-.9480905C6.8765273.6459437 6.345383.0559193 5.6765551.0559193H2.939136c-1.6232626 0-2.9391026 1.31584-2.9391026 2.9391026v48.9388522c0 1.6232626 1.31584 2.9392139 2.9391026 2.9392139h40.815527c1.6232626 0 2.9391026-1.3159513 2.9391026-2.9392139v-2.7927374c0-.6689391-.5901357-1.2001948-1.2782192-1.1011339" fill="#D9D9D9" mask="url(#b)"/></g><g transform="translate(15.353043 .064111)"><mask id="d" fill="#fff"><use xlink:href="#c"/></mask><path d="M42.241625 50.4208696H2.2260424V2.2819617h30.0036453l.0128 8.6423374c.0018921 1.2282435.9979547 2.2228592 2.2260869 2.2228592h7.7730504v37.2737113zm-.457906-39.4997983h-7.3151444l-.0117983-7.9864209 7.3269427 7.9864209zm2.4328904-.6412243L35.0862024.3277913c-.3271234-.3562852-.8045078-.2719165-1.2531756-.2719165H1.8261259c-1.0085287 0-1.8261704.8175304-1.8261704 1.8260591v48.9389635c0 1.0084174.8176417 1.8260591 1.8261704 1.8260591h40.8156383c1.0084174 0 1.8262121-.8176417 1.8262121-1.8260591v-39.49056c0-.3666365.0181009-.7567583-.2513669-1.0504904z" fill="#D9D9D9" mask="url(#d)"/></g></g></svg>