<svg width="64" height="64" viewBox="0 0 64 64" xmlns="http://www.w3.org/2000/svg" xmlns:xlink="http://www.w3.org/1999/xlink"><defs><path id="a" d="M0 .0000223h44.9717283V64H0z"/></defs><g fill="none" fill-rule="evenodd"><path fill="#D9D9D9" d="M25.7117213 46.912669h2.175108V36.1194146h-2.175108zm8.0491149-5.4934634h-1.470439v-3.3471777h1.470439c1.1721812 0 1.7583276.5553728 1.7583276 1.6657839 0 1.1210035-.5861464 1.6813938-1.7583276 1.6813938m.0606551-5.2998467h-3.7062021v10.7933658h2.175108v-3.5408501h1.5310941c1.1469826 0 2.0714146-.289338 2.7738536-.8679025.7732405-.640446 1.1595819-1.5624251 1.1595819-2.7661603 0-1.1981602-.3863414-2.1152334-1.1595819-2.7505505-.6921811-.5785644-1.6169477-.8679024-2.7738536-.8679024m8.3823944 7.3996934c-.2374913 0-.4999582.0153867-.7881812.0463832l-.3638188.0464948c0 .0052404.0884181-.0722509.2653659-.2324739.2120697-.191108.4041812-.3769756.5758885-.5578257l1.1446411-1.3017422c.1362509-.1548711.2829826-.3486551.4394146-.5810174.1314565-.196237.1971289-.2995958.1971289-.3099652l-.0530731.3563485c-.035345.2789686-.0529617.5193588-.0529617.7206132v1.8131847h-1.3644042zm3.5168781 3.3936724v-1.5730174h1.2885853v-1.820655h-1.2885853v-7.616669h-.1818537l-6.7532265 7.8180348v1.6192892h4.7826063v1.5730174h2.1524739zm8.8904028-6.128747c-.6619652-.6405575-1.5412405-.9607805-2.6376028-.9607805-.5102161 0-.9397074.0826202-1.2884739.2478606v-1.9990522h4.0245296v-1.9525575H48.790177v6.4464948l.189547.0776027c.3740767-.3100766.7023276-.5320696.9853101-.6665365.4194565-.2012544.8869687-.3021603 1.4022021-.3021603 1.3037492 0 1.955345.5501324 1.955345 1.6503972 0 1.1623693-.578453 1.7433868-1.7356934 1.7433868-.5202509 0-.9574355-.1342439-1.311108-.4029548-.2828711-.2168641-.5177979-.5319581-.704669-.9452822l-1.8646969.9840836c.3184391.6973101.8057979 1.2552474 1.4627457 1.6735889.7074564.4494495 1.5132543.67423 2.4177282.67423 1.1874565 0 2.1450035-.3305924 2.8725296-.992.7530593-.6818119 1.1294774-1.603791 1.1294774-2.7659373 0-1.0383833-.3260209-1.8751777-.9777282-2.5103833"/><g transform="translate(8)"><mask id="b" fill="#fff"><use xlink:href="#a"/></mask><path d="M43.5859624 50.9771373c-.5244878-.3146481-1.2048502-.1448363-1.5197213.379763-1.8731707 3.1212823-4.5281672 5.7346899-7.677993 7.557575-3.2449338 1.8776306-6.9538119 2.8701881-10.7257979 2.8701881-11.8259512 0-21.447136-9.6210732-21.447136-21.4471359 0-4.193115 2.8927109-11.1183832 8.3653799-20.0269826 4.5269407-7.3692543 9.6742578-14.271331 12.3394007-17.729784.1790662-.2322508.4496724-.3654912.7423554-.3654912.2926829 0 .5631777.1332404.7421324.3654913 4.0381324 5.2396376 13.918439 18.5714843 18.4402508 29.1776446.2399443.5627317.8905366.8245296 1.4533798.5844738.5627317-.2398327.8244182-.8905365.5844739-1.4532683-4.6218258-10.8406411-14.6334773-24.35423-18.7233449-29.661101-.6017561-.7808223-1.5118049-1.2284878-2.496892-1.2284878-.9850871 0-1.8952474.4476655-2.4970035 1.2284878-2.6920139 3.493129-7.8919582 10.4663415-12.4723066 17.922453C2.9247777 28.5409003-.0000446 35.6690955-.0000446 40.3375275c0 6.3206133 2.461324 12.2626899 6.9306202 16.7319861 4.4692962 4.4691847 10.4113728 6.9305087 16.7318746 6.9305087 4.1610035 0 8.2536585-1.0955819 11.835317-3.168223 3.4740628-2.0103136 6.4021185-4.8925436 8.4680697-8.3350523.3147596-.5244878.1447248-1.2049616-.3798745-1.5196097" fill="#D9D9D9" mask="url(#b)"/></g></g></svg>