<svg width="64" height="64" viewBox="0 0 64 64" xmlns="http://www.w3.org/2000/svg" xmlns:xlink="http://www.w3.org/1999/xlink"><defs><path id="a" d="M.0256334.0621746h29.7182275v2.226087H.0256334z"/><path id="c" d="M0 0h14.5800237v64H0z"/></defs><g fill="none" fill-rule="evenodd"><path d="M27.5056334 22.5722323h10.8220104c.6146226 0 1.1130435-.4983095 1.1130435-1.1130434s-.4984209-1.1130435-1.1130435-1.1130435H27.5056334c-.6147339 0-1.1130435.4983096-1.1130435 1.1130435s.4983096 1.1130434 1.1130435 1.1130434m0 6.309888h27.0548591c.6147339 0 1.1130435-.4983095 1.1130435-1.1130434s-.4983096-1.1130435-1.1130435-1.1130435H27.5056334c-.6147339 0-1.1130435.4983096-1.1130435 1.1130435s.4983096 1.1130434 1.1130435 1.1130434m0 6.309888h10.8220104c.6146226 0 1.1130435-.4983095 1.1130435-1.1130434s-.4984209-1.1130435-1.1130435-1.1130435H27.5056334c-.6147339 0-1.1130435.4983096-1.1130435 1.1130435s.4983096 1.1130434 1.1130435 1.1130434m0-25.2396187h27.0548591c.6147339 0 1.1130435-.4983096 1.1130435-1.1130435 0-.614734-.4983096-1.1130435-1.1130435-1.1130435H27.5056334c-.6147339 0-1.1130435.4983096-1.1130435 1.1130435s.4983096 1.1130435 1.1130435 1.1130435m0 6.309888h10.8220104c.6146226 0 1.1130435-.4983096 1.1130435-1.1130435s-.4984209-1.1130435-1.1130435-1.1130435H27.5056334c-.6147339 0-1.1130435.4983096-1.1130435 1.1130435s.4983096 1.1130435 1.1130435 1.1130435" fill="#D9D9D9"/><g transform="translate(26.366957 45.523478)"><mask id="b" fill="#fff"><use xlink:href="#a"/></mask><path d="M28.6308508.0621746H1.1386768c-.6147338 0-1.1130434.4984209-1.1130434 1.1130435 0 .6146226.4983096 1.1130435 1.1130435 1.1130435h27.4921739c.6147339 0 1.1130435-.4984209 1.1130435-1.1130435 0-.6146226-.4983096-1.1130435-1.1130435-1.1130435" fill="#D9D9D9" mask="url(#b)"/></g><path d="M27.5056334 41.5018518h10.8220104c.6146226 0 1.1130435-.4984208 1.1130435-1.1130435 0-.6146226-.4984209-1.1130434-1.1130435-1.1130434H27.5056334c-.6147339 0-1.1130435.4984208-1.1130435 1.1130434 0 .6146227.4983096 1.1130435 1.1130435 1.1130435" fill="#D9D9D9"/><g transform="translate(7)"><mask id="d" fill="#fff"><use xlink:href="#c"/></mask><path d="M7.290034 61.773913h-.0771338c-1.2976974-.0197008-2.5293913-.5391582-3.4682435-1.4632069-.9387409-.9238261-1.4772313-2.1466157-1.5161878-3.4428661-.054873-1.8250574.8809739-3.5466017 2.4424626-4.4929113.6657113-.403367 1.072306-1.1253983 1.072306-1.9037496V3.7728835c0-.8529252.6938714-1.5467965 1.5467966-1.5467965.8529252 0 1.5467965.6938713 1.5467965 1.5467965V50.471179c0 .7783513.4065948 1.5003826 1.0723061 1.9037496 1.53088.927833 2.4448 2.548313 2.4448 4.3350817 0 2.7922922-2.2716104 5.0639026-5.0639026 5.0639026m3.7728835-11.3027339V3.7728835C11.0629176 1.6891548 9.3737628 0 7.2900341 0S3.5171506 1.6891548 3.5171506 3.7728835V50.471179c-2.1677635 1.3137252-3.5961322 3.7252452-3.513767 6.4635548.1165357 3.8713878 3.3039583 7.0073878 7.1766818 7.0643757C7.2166845 64 7.2535263 64 7.290034 64c4.0263235 0 7.2899896-3.2636661 7.2899896-7.2899896 0-2.6452591-1.4088905-4.9610574-3.5171061-6.2388313" fill="#D9D9D9" mask="url(#d)"/></g></g></svg>